<svg xmlns="http://www.w3.org/2000/svg" x="0px" y="0px" width="100" height="100" viewBox="0 0 24 24">
  <path fill="#FFF" d="M12,2C6.477,2,2,6.477,2,12s4.477,10,10,10s10-4.477,10-10S17.523,2,12,2z M12,14c-1.105,0-2-0.895-2-2V8 c0-1.105,0.895-2,2-2s2,0.895,2,2v4C14,13.105,13.105,14,12,14z M15.5,11v1c0,1.933-1.567,3.5-3.5,3.5S8.5,13.933,8.5,12v-1 C8.224,11,8,11.224,8,11.5v0.5c0,2.209,1.791,4,4,4c2.209,0,4-1.791,4-4v-0.5C16,11.224,15.776,11,15.5,11z M13,16.92V18h1 c0.552,0,1,0.448,1,1v0c0,0.552-0.448,1-1,1h-4c-0.552,0-1-0.448-1-1v0c0-0.552,0.448-1,1-1h1v-1.08 C9.162,16.54,8,14.929,8,13v0h0.5C8.776,13,9,12.776,9,12.5V12c0-0.276,0.224-0.5,0.5-0.5h5c0.276,0,0.5,0.224,0.5,0.5v0.5 c0,0.276,0.224,0.5,0.5,0.5H16v0C16,14.929,14.838,16.54,13,16.92z"></path>
</svg>

